<svg xmlns="http://www.w3.org/2000/svg" viewBox="0 0 444.56 508.4"><defs><style>.cls-1{fill:#f0ffb9;}.cls-2{fill:#666;}.cls-3,.cls-4{fill:none;stroke:#000;stroke-miterlimit:10;}.cls-3{stroke-width:12px;}.cls-4{stroke-width:4px;}.cls-5{font-size:94px;font-family:InkFree, Ink Free;}</style></defs><title>Asset 1</title><g id="Layer_2" data-name="Layer 2"><g id="Layer_1-2" data-name="Layer 1"><path class="cls-1" d="M224.41,471.4C137.52,471.23,85,411.61,56.78,379.57c-21.78-24.72-40.59-46.08-34.4-64,4.75-13.78,24.23-27.26,201.53-27.67h8c147.59,0,178.26,9.33,185.49,27.7,7.45,18.94-9.27,41.86-25.44,64a244.7,244.7,0,0,1-49.68,50.89c-35.78,27.14-75.33,40.9-117.54,40.9Z"/><path d="M232,288.39c73.14,0,120.18,2.38,148,7.49,27.61,5.07,34.09,12.55,37,19.89,7.36,18.69-9.28,41.49-25.37,63.54A244.24,244.24,0,0,1,342,430.1c-35.69,27.08-75.14,40.8-117.24,40.8h-.37a180.06,180.06,0,0,1-58.63-9.79,196.34,196.34,0,0,1-46.69-23.84c-27.41-18.83-47.36-41.49-61.94-58-21.67-24.61-40.39-45.86-34.3-63.51,4.69-13.6,24.09-26.92,201.06-27.33H232m0-1H223.9c-175.39.41-196.9,13.23-202,28-6.28,18.2,12.35,39.35,34.5,64.5,28.78,32.67,80.89,91.83,168,92h.38c100.48,0,157.9-78.67,167.62-92,16.49-22.59,33.06-45.3,25.5-64.5-6.81-17.33-31.77-28-185.94-28Z"/><polygon class="cls-2" points="111.43 507.9 0.87 316.4 443.69 316.4 333.13 507.9 111.43 507.9"/><path d="M442.83,316.9l-110,190.5H111.72L1.73,316.9h441.1m1.73-1H0L111.14,508.4H333.42L444.56,315.9Z"/><line class="cls-3" x1="223.9" y1="287.4" x2="233.9" y2="157.4"/><rect class="cls-4" x="109.4" y="11.9" width="260" height="146" transform="translate(7.22 -18.11) rotate(4.4)"/><text/><text class="cls-5" transform="translate(147.4 114.06)">DIp</text></g></g></svg>